# https://github.com/mikedh/trimesh
mtllib microwave_right_group_main_image2.mtl
usemtl microwave_right_group_main_image2
v 0.35480402 -0.22856011 -0.15163449
v 0.35170377 -0.22856011 -0.15473473
v 0.27579234 -0.22856011 0.03122517
v 0.35593866 -0.22856011 -0.14739960
v 0.35593866 -0.22856011 0.20145751
v 0.20372466 -0.22856011 0.20992730
v 0.34746888 -0.22856011 0.20992730
v 0.20372466 -0.22856011 -0.15586938
v 0.34746888 -0.22856011 -0.15586938
v 0.35170377 -0.22856011 0.20879264
v 0.35480402 -0.22856011 0.20569240
v 0.35403326 -0.23204621 -0.15119037
v 0.27579234 -0.23204621 0.03122517
v 0.35125822 -0.23204621 -0.15396397
v 0.35507908 -0.23204621 -0.14728785
v 0.35507908 -0.23204621 0.20134434
v 0.34735570 -0.23204621 0.20906771
v 0.20458426 -0.23204621 0.20906771
v 0.20458426 -0.23204621 -0.15500980
v 0.34735570 -0.23204621 -0.15500980
v 0.35125822 -0.23204621 0.20802188
v 0.35403326 -0.23204621 0.20524685
v 0.35157340 -0.23184246 -0.15450980
v 0.35457765 -0.23184140 -0.15150556
v 0.35457765 -0.23184140 -0.15150556
v 0.35157340 -0.23184246 -0.15450980
v 0.35170377 -0.23134899 -0.15473473
v 0.35480402 -0.23134899 -0.15163449
v 0.34743593 -0.23184140 0.20967515
v 0.20397538 -0.23184140 0.20967515
v 0.20397538 -0.23184140 0.20967515
v 0.34743593 -0.23184140 0.20967515
v 0.34746888 -0.23134899 0.20992730
v 0.20372466 -0.23134899 0.20992730
v 0.35480402 -0.22856011 -0.15163449
v 0.35480402 -0.23134899 -0.15163449
v 0.35170377 -0.23134899 -0.15473473
v 0.35170377 -0.22856011 -0.15473473
v 0.35593866 -0.22856011 -0.14739960
v 0.35593866 -0.23134899 -0.14739960
v 0.35593866 -0.22856011 0.20145751
v 0.35593866 -0.23134899 0.20145751
v 0.35593866 -0.23134899 -0.14739960
v 0.35593866 -0.22856011 -0.14739960
v 0.20372466 -0.22856011 0.20992730
v 0.20372466 -0.23134899 0.20992730
v 0.34746888 -0.23134899 0.20992730
v 0.34746888 -0.22856011 0.20992730
v 0.34746888 -0.22856011 -0.15586938
v 0.34746888 -0.23134899 -0.15586938
v 0.20372466 -0.23134899 -0.15586938
v 0.20372466 -0.22856011 -0.15586938
v 0.35170377 -0.23134899 0.20879264
v 0.35170377 -0.22856011 0.20879264
v 0.35480402 -0.22856011 0.20569240
v 0.35480402 -0.23134899 0.20569240
v 0.35593866 -0.23134899 0.20145751
v 0.35593866 -0.22856011 0.20145751
v 0.35593866 -0.23134899 -0.14739960
v 0.35568652 -0.23184140 -0.14736665
v 0.35568652 -0.23184140 -0.14736665
v 0.35593866 -0.23134899 0.20145751
v 0.35568652 -0.23184140 0.20142456
v 0.35568652 -0.23184140 0.20142456
v 0.35480402 -0.23134899 0.20569240
v 0.35457765 -0.23184140 0.20556203
v 0.35457765 -0.23184140 0.20556203
v 0.20397538 -0.23184140 0.20967515
v 0.20397538 -0.23184246 -0.15561868
v 0.35157340 -0.23184140 0.20856629
v 0.35157340 -0.23184140 0.20856629
v 0.35170377 -0.23134899 0.20879264
v 0.20372466 -0.23134899 -0.15586938
v 0.34746888 -0.23134899 -0.15586938
v 0.34743593 -0.23184246 -0.15561868
v 0.20397538 -0.23184246 -0.15561868
v 0.20397538 -0.23184246 -0.15561868
v 0.34743593 -0.23184246 -0.15561868
vn 0.00000000 1.00000000 0.00000000
vn 0.00000000 1.00000000 0.00000000
vn 0.00000000 1.00000000 0.00000000
vn 0.00000000 1.00000000 0.00000000
vn 0.00000000 1.00000000 0.00000000
vn 0.00000000 1.00000000 0.00000000
vn 0.00000000 1.00000000 0.00000000
vn 0.00000000 1.00000000 0.00000000
vn 0.00000000 1.00000000 0.00000000
vn 0.00000000 1.00000000 0.00000000
vn 0.00000000 1.00000000 0.00000000
vn 0.00539990 -0.99998101 -0.00296995
vn 0.00000000 -1.00000000 0.00000000
vn 0.00269996 -0.99998582 -0.00458993
vn 0.03293202 -0.99945758 -0.00013497
vn 0.03171855 -0.99949683 0.00013497
vn 0.00000000 -0.99998315 0.00580490
vn -0.01511952 -0.99986805 0.00593981
vn -0.01457967 -0.99987764 -0.00566988
vn 0.00000000 -0.99998468 -0.00553492
vn 0.00269995 -0.99998455 0.00485993
vn 0.00539990 -0.99998060 0.00310495
vn 0.25396742 -0.86065323 -0.44133498
vn 0.44147975 -0.86068817 -0.25359714
vn 0.83198793 -0.27865112 -0.47973913
vn 0.48021841 -0.27862997 -0.83171848
vn 0.49955666 -0.04084398 -0.86531781
vn 0.86531781 -0.04084398 -0.49955666
vn 0.00379290 -0.85307400 0.52177617
vn 0.00000000 -0.85280394 0.52223121
vn 0.00000000 -0.26988209 0.96289338
vn 0.00731026 -0.27014052 0.96279316
vn 0.00760556 -0.04099294 0.99913049
vn 0.00000000 -0.03401774 0.99942123
vn 0.86601905 0.00000000 -0.50001100
vn 0.86531781 -0.04084398 -0.49955666
vn 0.49955666 -0.04084398 -0.86531781
vn 0.50001100 0.00000000 -0.86601905
vn 0.99999488 0.00000000 -0.00319998
vn 0.99915443 -0.04098981 -0.00320210
vn 0.99999488 0.00000000 0.00319998
vn 0.99915443 -0.04098981 0.00320210
vn 0.99915443 -0.04098981 -0.00320210
vn 0.99999488 0.00000000 -0.00319998
vn 0.00000000 0.00000000 1.00000000
vn 0.00000000 -0.03401774 0.99942123
vn 0.00760556 -0.04099294 0.99913049
vn 0.00769977 0.00000000 0.99997036
vn 0.00769977 0.00000000 -0.99997036
vn 0.00760556 -0.04099294 -0.99913049
vn 0.00000000 -0.03401774 -0.99942123
vn 0.00000000 0.00000000 -1.00000000
vn 0.49955666 -0.04084398 0.86531781
vn 0.50001100 0.00000000 0.86601905
vn 0.86601905 0.00000000 0.50001100
vn 0.86531781 -0.04084398 0.49955666
vn 0.99915443 -0.04098981 0.00320210
vn 0.99999488 0.00000000 0.00319998
vn 0.99915443 -0.04098981 -0.00320210
vn 0.96284164 -0.27004897 -0.00308867
vn 0.52213856 -0.85285909 -0.00164354
vn 0.99915443 -0.04098981 0.00320210
vn 0.96284164 -0.27004897 0.00308867
vn 0.52213866 -0.85285926 0.00151711
vn 0.86531781 -0.04084398 0.49955666
vn 0.83171848 -0.27862997 0.48021841
vn 0.44147975 -0.86068817 0.25359714
vn -0.52223121 -0.85280394 0.00000000
vn -0.52232315 -0.85274764 0.00000000
vn 0.25359714 -0.86068817 0.44147975
vn 0.47981854 -0.27863734 0.83194676
vn 0.49955818 -0.04076997 0.86532043
vn 0.00000000 -0.03401774 -0.99942123
vn 0.00760556 -0.04099294 -0.99913049
vn 0.00730969 -0.27004304 -0.96282051
vn 0.00000000 -0.26981138 -0.96291319
vn 0.00000000 -0.85274764 -0.52232315
vn 0.00379295 -0.85299221 -0.52190986
vt 0.06817000 0.95255100
vt 0.06701200 0.95370900
vt 0.04073800 0.88737900
vt 0.06859400 0.95096900
vt 0.06859400 0.82378900
vt 0.01381700 0.82062500
vt 0.06543000 0.82062500
vt 0.01381800 0.95413300
vt 0.06543100 0.95413300
vt 0.06701200 0.82104900
vt 0.06817000 0.82220700
vt 0.98500600 0.97690700
vt 0.77779800 0.49383000
vt 0.97766600 0.98425400
vt 0.98777200 0.96657300
vt 0.98714800 0.04300700
vt 0.96668600 0.02258100
vt 0.58896500 0.02394800
vt 0.58961400 0.98617000
vt 0.96733800 0.98702500
vt 0.97701700 0.02533900
vt 0.98436800 0.03267600
vt 0.97857000 0.98582800
vt 0.98657900 0.97781700
vt 0.98657900 0.97781700
vt 0.97857000 0.98582800
vt 0.97950500 0.98744900
vt 0.98821300 0.97877300
vt 0.96689300 0.02081100
vt 0.58722300 0.02227700
vt 0.58722300 0.02227700
vt 0.96689300 0.02081100
vt 0.96698200 0.01892400
vt 0.58552500 0.02111200
vt 0.06781500 0.82043000
vt 0.06781500 0.81902400
vt 0.06617700 0.81902400
vt 0.06617800 0.82043000
vt 0.06945300 0.82043000
vt 0.06945300 0.81902300
vt 0.56534900 0.06473500
vt 0.55509000 0.06473500
vt 0.55509500 0.99254100
vt 0.56535400 0.99254100
vt 0.98411000 0.01564200
vt 0.98411000 0.00538200
vt 0.60758500 0.00538800
vt 0.60758500 0.01564800
vt 0.06454000 0.82043000
vt 0.06454000 0.81902400
vt 0.01292700 0.81903200
vt 0.01292700 0.82043800
vt 0.59563800 0.00538800
vt 0.59563800 0.01564800
vt 0.58369100 0.01564800
vt 0.58369000 0.00538800
vt 0.57174200 0.00538800
vt 0.57174200 0.01564800
vt 0.99142000 0.96687600
vt 0.98953700 0.96678500
vt 0.98953700 0.96678500
vt 0.99079600 0.04269900
vt 0.98891300 0.04279300
vt 0.98891300 0.04279300
vt 0.98755600 0.03082500
vt 0.98593800 0.03176600
vt 0.98593800 0.03176600
vt 0.58722300 0.02227700
vt 0.58787400 0.98784300
vt 0.97792100 0.02376400
vt 0.97792100 0.02376400
vt 0.97887200 0.02212600
vt 0.58617700 0.98901000
vt 0.96763900 0.99068200
vt 0.96754700 0.98879500
vt 0.58787400 0.98784300
vt 0.58787400 0.98784300
vt 0.96754700 0.98879500
f 1/1/1 2/2/2 3/3/3
f 1/1/1 3/3/3 4/4/4
f 3/3/3 5/5/5 4/4/4
f 3/3/3 6/6/6 7/7/7
f 3/3/3 8/8/8 6/6/6
f 3/3/3 9/9/9 8/8/8
f 3/3/3 7/7/7 10/10/10
f 5/5/5 3/3/3 11/11/11
f 3/3/3 10/10/10 11/11/11
f 2/2/2 9/9/9 3/3/3
f 12/12/12 13/13/13 14/14/14
f 12/12/12 15/15/15 13/13/13
f 13/13/13 15/15/15 16/16/16
f 13/13/13 17/17/17 18/18/18
f 13/13/13 18/18/18 19/19/19
f 13/13/13 19/19/19 20/20/20
f 13/13/13 21/21/21 17/17/17
f 16/16/16 22/22/22 13/13/13
f 13/13/13 22/22/22 21/21/21
f 14/14/14 13/13/13 20/20/20
f 12/12/12 14/14/14 23/23/23
f 12/12/12 23/23/23 24/24/24
f 25/25/25 26/26/26 27/27/27
f 25/25/25 27/27/27 28/28/28
f 18/18/18 17/17/17 29/29/29
f 18/18/18 29/29/29 30/30/30
f 31/31/31 32/32/32 33/33/33
f 31/31/31 33/33/33 34/34/34
f 35/35/35 36/36/36 37/37/37
f 35/35/35 37/37/37 38/38/38
f 39/39/39 40/40/40 36/36/36
f 39/39/39 36/36/36 35/35/35
f 41/41/41 42/42/42 43/43/43
f 41/41/41 43/43/43 44/44/44
f 45/45/45 46/46/46 47/47/47
f 45/45/45 47/47/47 48/48/48
f 49/49/49 50/50/50 51/51/51
f 49/49/49 51/51/51 52/52/52
f 48/48/48 47/47/47 53/53/53
f 48/48/48 53/53/53 54/54/54
f 55/55/55 56/56/56 57/57/57
f 55/55/55 57/57/57 58/58/58
f 54/54/54 53/53/53 56/56/56
f 54/54/54 56/56/56 55/55/55
f 38/38/38 37/37/37 50/50/50
f 38/38/38 50/50/50 49/49/49
f 28/28/28 59/59/59 60/60/60
f 28/28/28 60/60/60 25/25/25
f 24/24/24 61/61/61 15/15/15
f 24/24/24 15/15/15 12/12/12
f 59/59/59 62/62/62 63/63/63
f 59/59/59 63/63/63 60/60/60
f 61/61/61 64/64/64 16/16/16
f 61/61/61 16/16/16 15/15/15
f 62/62/62 65/65/65 66/66/66
f 62/62/62 66/66/66 63/63/63
f 64/64/64 67/67/67 22/22/22
f 64/64/64 22/22/22 16/16/16
f 68/68/68 69/69/69 19/19/19
f 68/68/68 19/19/19 18/18/18
f 17/17/17 21/21/21 70/70/70
f 17/17/17 70/70/70 29/29/29
f 32/32/32 71/71/71 72/72/72
f 32/32/32 72/72/72 33/33/33
f 73/73/73 74/74/74 75/75/75
f 73/73/73 75/75/75 76/76/76
f 77/77/77 78/78/78 20/20/20
f 77/77/77 20/20/20 19/19/19
f 14/14/14 20/20/20 78/78/78
f 14/14/14 78/78/78 23/23/23
f 26/26/26 75/75/75 74/74/74
f 26/26/26 74/74/74 27/27/27
f 21/21/21 22/22/22 67/67/67
f 21/21/21 67/67/67 70/70/70
f 71/71/71 66/66/66 65/65/65
f 71/71/71 65/65/65 72/72/72

