# https://github.com/mikedh/trimesh
mtllib microwave_right_group_main_image3.mtl
usemtl microwave_right_group_main_image3
v 0.32216954 -0.22541177 0.12186151
v 0.32216954 -0.22541177 0.09682709
v 0.30455986 -0.22541177 0.12186151
v 0.30455986 -0.22541177 0.09682709
v 0.26271931 -0.22541177 0.12186151
v 0.26271931 -0.22541177 0.09682709
vn 0.00000000 -1.00000000 0.00000000
vn 0.00000000 -1.00000000 0.00000000
vn 0.00000000 -1.00000000 0.00000000
vn 0.00000000 -1.00000000 0.00000000
vn 0.00000000 -1.00000000 0.00000000
vn 0.00000000 -1.00000000 0.00000000
vt 0.62518900 0.06294100
vt 0.62518900 0.15012400
vt 0.56173600 0.06025500
vt 0.56173600 0.15012400
vt 0.41097400 0.05689300
vt 0.41097400 0.15012400
f 3/3/3 5/5/5 6/6/6
f 3/3/3 6/6/6 4/4/4
f 4/4/4 2/2/2 1/1/1
f 4/4/4 1/1/1 3/3/3

